<svg height="512pt" viewBox="0 0 512 512.00001" width="512pt" xmlns="http://www.w3.org/2000/svg"><path d="m303.398438 202.214844h-251.144532c-4.179687 0-7.566406 3.386718-7.566406 7.566406s3.386719 7.566406 7.566406 7.566406h251.144532c4.183593 0 7.570312-3.386718 7.570312-7.566406s-3.390625-7.566406-7.570312-7.566406zm0 0"/><path d="m243.960938 261.617188c-4.1875 0-7.566407 3.390624-7.566407 7.570312 0 4.175781 3.378907 7.566406 7.566407 7.566406h59.441406c4.175781 0 7.566406-3.390625 7.566406-7.566406 0-4.179688-3.390625-7.570312-7.566406-7.570312zm0 0"/><path d="m52.253906 261.617188c-4.1875 0-7.566406 3.390624-7.566406 7.570312 0 4.175781 3.378906 7.566406 7.566406 7.566406h161.4375c4.179688 0 7.566406-3.390625 7.566406-7.566406 0-4.179688-3.386718-7.570312-7.566406-7.570312zm0 0"/><path d="m159.894531 48.097656h-97.5c-10.121093 0-18.351562 8.234375-18.351562 18.355469v80.082031c0 10.109375 8.230469 18.34375 18.351562 18.34375h97.5c10.109375 0 18.34375-8.234375 18.34375-18.34375v-80.082031c0-10.121094-8.234375-18.355469-18.34375-18.355469zm-73.515625 101.644532c7.8125-14.035157 16.523438-21.3125 19.367188-23.449219 4.085937.78125 7.175781.558593 10.796875 0 2.800781 2.105469 11.535156 9.382812 19.359375 23.449219zm10.632813-52.203126c0-7.789062 6.339843-14.125 14.128906-14.125s14.125 6.335938 14.125 14.125c0 7.789063-6.335937 14.125-14.125 14.125s-14.128906-6.335937-14.128906-14.125zm66.089843 48.996094c0 1.734375-1.472656 3.207032-3.207031 3.207032h-7.117187c-.503906-1.660157-8.0625-18.085938-21.636719-30.867188 5.699219-5.335938 9.257813-12.933594 9.257813-21.335938 0-16.132812-13.125-29.261718-29.261719-29.261718-26.480469 0-39.265625 32.558594-19.996094 50.601562-11.925781 11.226563-20.523437 27.214844-21.636719 30.863282h-7.109375c-1.746093 0-3.21875-1.472657-3.21875-3.207032v-80.082031c0-1.746094 1.472657-3.21875 3.21875-3.21875h97.496094c1.738281 0 3.210937 1.472656 3.210937 3.21875zm0 0"/><path d="m355.65625 265.675781v-244.527343c0-11.664063-9.484375-21.148438-21.148438-21.148438h-313.359374c-11.664063 0-21.148438 9.484375-21.148438 21.148438v81.261718c0 4.179688 3.390625 7.570313 7.566406 7.570313 4.179688 0 7.566406-3.390625 7.566406-7.570313v-81.261718c0-3.320313 2.695313-6.015626 6.015626-6.015626h313.359374c3.308594 0 6.011719 2.695313 6.011719 6.015626v249.371093c-25.203125 9.917969-46.429687 27.785157-60.585937 50.507813h-227.679688c-4.1875 0-7.566406 3.390625-7.566406 7.566406 0 4.179688 3.378906 7.570312 7.566406 7.570312h219.648438c-26.167969 58.574219-3.492188 128.949219 54.625 160.597657h-305.378906c-3.320313 0-6.015626-2.691407-6.015626-6.011719v-358.070312c0-4.175782-3.386718-7.566407-7.566406-7.566407-4.175781 0-7.566406 3.390625-7.566406 7.566407v358.070312c0 11.664062 9.484375 21.148438 21.148438 21.148438h313.359374c5.550782 0 10.613282-2.152344 14.386719-5.660157 80.386719 25.183594 162.207031-35.371093 162.207031-119.324219 0-81.089843-76.527343-141.089843-155.445312-121.238281zm-15.136719 221.167969c-92.253906-42.234375-82.769531-177.273438 15.136719-205.488281 69.953125-20.300781 140.308594 32.546875 140.308594 105.558593 0 79.449219-82.6875 133.347657-155.445313 99.929688zm0 0"/><path d="m340.519531 306.214844c-28.109375 15.941406-47.109375 46.140625-47.109375 80.699218 0 79.851563 94.03125 121.492188 153.367188 70.042969 3.15625-2.742187 3.5-7.515625.757812-10.675781-2.734375-3.15625-7.519531-3.5-10.675781-.753906-49.980469 43.324218-128.3125 7.550781-128.3125-58.613282 0-25.75 12.613281-48.601562 31.972656-62.71875 51.300781-37.476562 123.160157-.179687 123.160157 62.71875 0 13.015626-3.300782 25.910157-9.558594 37.261719-2.015625 3.664063-.675782 8.265625 2.988281 10.28125 3.664063 2.019531 8.261719.675781 10.269531-2.984375 7.476563-13.582031 11.433594-28.988281 11.433594-44.558594 0-70.714843-76.695312-115.710937-138.292969-80.699218zm0 0"/><path d="m425.730469 350.511719-53.386719 69.679687-16.6875-14.21875-15.136719-12.894531-3.003906-2.5625c-3.179687-2.714844-7.960937-2.328125-10.664063.847656-2.714843 3.1875-2.332031 7.960938.847657 10.675781 27.984375 23.847657 9.574219 8.152344 40.902343 34.839844 3.28125 2.796875 8.265626 2.292969 10.917969-1.160156l58.21875-76.007812c2.542969-3.316407 1.914063-8.058594-1.402343-10.601563-3.320313-2.542969-8.0625-1.917969-10.605469 1.402344zm0 0"/><path d="m51.613281 409.414062h112.738281c4.183594 0 7.570313-3.386718 7.570313-7.566406 0-4.179687-3.386719-7.566406-7.570313-7.566406h-112.738281c-4.179687 0-7.566406 3.386719-7.566406 7.566406 0 4.179688 3.386719 7.566406 7.566406 7.566406zm0 0"/></svg>